# xmcd
#
# Track frame offsets: 
#        150
#        15682
#        33557
#        46382
#        60097
#        74985
#        87462
#        101947
#        116700
#        132342
#        149730
#        170277
#        186075
#        206255
#        227110
#        243757
#        262095
#        281530
#        299315
#        318097
#
# Disc length: 4444 seconds
#
# Revision: 19
# Processed by: cddbd v1.5.2PL0 Copyright (c) Steve Scherf et al.
# Submitted via: ExactAudioCopyFreeDBPlugin 1.0
#
DISCID=31115a14
DTITLE=Various Artists / Pure Funk
DYEAR=1998
DGENRE=Funk
TTITLE0=Commodores / Brick House
TTITLE1=Average White Band / Pick Up The Pieces
TTITLE2=Earth, Wind & Fire / Shining Star
TTITLE3=Kool & The Gang / Jungle Boogie
TTITLE4=Labelle / Lady Marmalade
TTITLE5=Jean Knight / Mr. Big Stuff
TTITLE6=Carl Douglas / Kung Fu Fighting
TTITLE7=Rose Royce / Car Wash
TTITLE8=Rufus / Tell Me Something Good
TTITLE9=Curtis Mayfield / Superfly
TTITLE10=Isaac Hayes / Theme From Shaft
TTITLE11=Ohio Players / Fire
TTITLE12=Parliament / Flash Light
TTITLE13=Ltd / (Every Time I Turn Around) Back In Love Again
TTITLE14=Chic / Good Times
TTITLE15=Patrice Rushen / Forget Me Nots
TTITLE16=Cameo / Word Up
TTITLE17=Gap Band / Early In The Morning
TTITLE18=Yarbrough & Peoples / Don't Stop The Music
TTITLE19=Rick James / Superfreak (Part 1)
EXTD=
EXTT0=CommodoresCommodores
EXTT1=Average White BandAverage White Band
EXTT2=Earth Wind & FireEarth Wind & Fire
EXTT3=Kool & The GangKool & The Gang
EXTT4=LabelleLabelle
EXTT5=Jean KnightJean Knight
EXTT6=Carl DouglasCarl Douglas
EXTT7=Rose RoyceRose Royce
EXTT8=Rufus (Featuring Chaka Khan)Rufus (Featuring Chaka Khan)
EXTT9=Curtis MayfieldCurtis Mayfield
EXTT10=Isaac HayesIsaac Hayes
EXTT11=Ohio PlayersOhio Players
EXTT12=ParliamentParliament
EXTT13=L.T.D.L.T.D.
EXTT14=ChicChic
EXTT15=Patrice RushenPatrice Rushen
EXTT16=CameoCameo
EXTT17=The Gap BandThe Gap Band
EXTT18=Yarbrough & PeoplesYarbrough & Peoples
EXTT19=Rick JamesRick James
PLAYORDER=
.
